<svg width="240" height="33" viewBox="0 0 240 33" fill="none" xmlns="http://www.w3.org/2000/svg">
<g clip-path="url(#clip0_651_26)">
<path d="M29.886 5.70846H8.01806V12.665H28.7924C31.8907 12.665 34.0779 13.1998 35.353 14.2703C36.4465 15.3407 37.1753 17.3031 37.1753 20.3358V24.7953C37.1753 27.8263 36.629 29.7895 35.353 30.8574C34.2594 31.9304 32.0731 32.4635 28.7924 32.4635H8.38288C5.28457 32.4635 3.09831 31.9269 1.82233 30.8574C0.728753 29.7878 0 27.8263 0 24.7953V23.9034L6.74297 22.475V26.3997H30.2508V18.9109H9.65798C6.56056 18.9109 4.37341 18.3726 3.09831 17.3048C2.00474 16.2343 1.27599 14.272 1.27599 11.2401V7.67253C1.27599 4.63975 1.82233 2.67742 3.09831 1.60697C4.191 0.534787 6.37815 0 9.65798 0H28.4285C31.5259 0 33.5306 0.534787 34.8066 1.42668C36.0817 2.49712 36.629 4.28091 36.629 6.95658V7.66992L29.886 9.27602V5.70846Z" fill="white"/>
<path d="M41.0024 32.4652V0H69.4309C74.3507 0 76.9027 2.14089 76.9027 6.24324V13.5569C76.9027 17.8378 74.3507 19.7993 69.4309 19.7993H48.4742V32.4652H41.0024ZM65.7863 5.5299H48.4742V14.2703H65.7863C67.0614 14.2703 67.791 14.0917 68.3374 13.9132C69.0661 13.5569 69.2485 12.8436 69.2485 11.7731V8.20558C69.2485 7.13514 68.8837 6.4218 68.3374 5.88614C67.9725 5.70846 67.0614 5.5299 65.7863 5.5299Z" fill="white"/>
<path d="M188.428 5.70846H167.655V26.222H188.428V20.6912H196.083V24.6159C196.083 27.6486 195.531 29.6101 194.442 30.6814C193.349 31.751 191.162 32.2858 187.882 32.2858H168.018C164.921 32.2858 162.733 31.7493 161.458 30.6814C160.362 29.6101 159.636 27.6486 159.636 24.6159V7.66992C159.636 4.63801 160.182 2.67568 161.458 1.60523C162.733 0.534787 164.921 0 168.018 0H187.882C190.975 0 193.164 0.534787 194.442 1.60523C195.534 2.67568 196.083 4.63801 196.083 7.66992V9.81081L188.428 11.0598V5.70846Z" fill="white"/>
<path d="M200.457 32.4652V0H208.109V12.4865H232.163V0H240V32.4652H232.163V18.552H208.109V32.4652H200.457Z" fill="white"/>
<path d="M147.972 18.7297C151.071 18.7297 153.258 18.1949 154.532 17.1262C155.628 16.0541 156.354 14.0935 156.354 11.0615V7.66992C156.354 4.63801 155.806 2.67568 154.532 1.60523C153.26 0.534787 151.251 0 147.972 0H128.108C125.014 0 122.826 0.534787 121.549 1.60523C120.456 2.67568 119.727 4.63801 119.727 7.66992V19.7993C119.727 25.3301 120.822 27.8263 123.19 29.9655C125.558 31.9304 129.383 32.9983 135.216 32.9983C135.216 32.9983 145.057 32.9983 151.617 31.3939L153.621 24.7953C151.437 25.6872 147.428 26.9344 139.592 27.1139H135.22C132.486 27.1139 129.753 26.5791 128.842 25.5078C127.747 24.4382 127.564 22.8321 127.564 20.5135V18.7297H147.972ZM148.704 12.8436H127.56V5.70846H148.517V12.8436H148.704Z" fill="white"/>
<path d="M108.428 18.7297C111.527 18.7297 113.713 18.1949 114.989 17.1245C116.083 16.0541 116.811 14.0917 116.811 11.0616V7.66992C116.811 4.63801 116.264 2.67568 114.989 1.60523C113.895 0.534787 111.708 0 108.428 0H88.5653C85.4669 0 83.2807 0.534787 82.0047 1.60523C80.9111 2.67568 80.1824 4.63801 80.1824 7.66992V19.7993C80.1824 25.3318 81.2759 27.8263 83.6446 29.9672C86.0142 31.9304 89.8404 33 95.6722 33C95.6722 33 105.513 33 112.073 31.3939L114.078 24.7953C111.891 25.6872 107.882 26.9344 100.046 27.1156H95.6722C92.9387 27.1156 90.2052 26.5791 89.294 25.5095C88.2004 24.4399 88.018 22.8338 88.018 20.5153V18.7315H108.428V18.7297ZM109.157 12.8436H88.2004V5.70846H109.157V12.8436Z" fill="white"/>
</g>
<defs>
<clipPath id="clip0_651_26">
<rect width="240" height="33" fill="white"/>
</clipPath>
</defs>
</svg>
